<svg xmlns="http://www.w3.org/2000/svg" xmlns:xlink="http://www.w3.org/1999/xlink" width="500" zoomAndPan="magnify" viewBox="0 0 375 121.500001" height="162" preserveAspectRatio="xMidYMid meet" version="1.0"><defs><g/></defs><g fill="#ffffff" fill-opacity="1"><g transform="translate(1.295767, 96.940246)"><g><path d="M 24.75 -48.796875 C 26.726562 -51.316406 29.300781 -53.207031 32.46875 -54.46875 C 35.644531 -55.726562 39.28125 -56.359375 43.375 -56.359375 L 43.375 -38.875 C 41.601562 -39.070312 40.132812 -39.171875 38.96875 -39.171875 C 34.8125 -39.171875 31.554688 -38.046875 29.203125 -35.796875 C 26.847656 -33.546875 25.671875 -30.101562 25.671875 -25.46875 L 25.671875 0 L 6.234375 0 L 6.234375 -55.4375 L 24.75 -55.4375 Z M 24.75 -48.796875 "/></g></g></g><g fill="#ffffff" fill-opacity="1"><g transform="translate(38.839452, 96.940246)"><g><path d="M 62.90625 -27.625 C 62.90625 -27.488281 62.804688 -25.882812 62.609375 -22.8125 L 22.296875 -22.8125 C 23.117188 -19.945312 24.707031 -17.742188 27.0625 -16.203125 C 29.414062 -14.671875 32.363281 -13.90625 35.90625 -13.90625 C 38.5625 -13.90625 40.863281 -14.28125 42.8125 -15.03125 C 44.757812 -15.78125 46.71875 -17.007812 48.6875 -18.71875 L 58.921875 -8.078125 C 53.535156 -2.078125 45.660156 0.921875 35.296875 0.921875 C 28.816406 0.921875 23.117188 -0.300781 18.203125 -2.75 C 13.296875 -5.207031 9.492188 -8.617188 6.796875 -12.984375 C 4.109375 -17.347656 2.765625 -22.296875 2.765625 -27.828125 C 2.765625 -33.285156 4.078125 -38.175781 6.703125 -42.5 C 9.328125 -46.832031 12.957031 -50.222656 17.59375 -52.671875 C 22.226562 -55.128906 27.445312 -56.359375 33.25 -56.359375 C 38.769531 -56.359375 43.78125 -55.21875 48.28125 -52.9375 C 52.78125 -50.65625 56.34375 -47.347656 58.96875 -43.015625 C 61.59375 -38.679688 62.90625 -33.550781 62.90625 -27.625 Z M 33.34375 -42.5625 C 30.34375 -42.5625 27.835938 -41.707031 25.828125 -40 C 23.816406 -38.289062 22.539062 -35.972656 22 -33.046875 L 44.703125 -33.046875 C 44.160156 -35.972656 42.878906 -38.289062 40.859375 -40 C 38.847656 -41.707031 36.34375 -42.5625 33.34375 -42.5625 Z M 33.34375 -42.5625 "/></g></g></g><g fill="#ffffff" fill-opacity="1"><g transform="translate(96.740631, 96.940246)"><g><path d="M 26.390625 0.921875 C 21.753906 0.921875 17.1875 0.394531 12.6875 -0.65625 C 8.1875 -1.71875 4.570312 -3.101562 1.84375 -4.8125 L 7.671875 -18.109375 C 10.191406 -16.535156 13.191406 -15.285156 16.671875 -14.359375 C 20.148438 -13.441406 23.59375 -12.984375 27 -12.984375 C 30.144531 -12.984375 32.378906 -13.304688 33.703125 -13.953125 C 35.035156 -14.609375 35.703125 -15.550781 35.703125 -16.78125 C 35.703125 -18.007812 34.898438 -18.878906 33.296875 -19.390625 C 31.691406 -19.898438 29.148438 -20.394531 25.671875 -20.875 C 21.242188 -21.414062 17.476562 -22.128906 14.375 -23.015625 C 11.269531 -23.898438 8.59375 -25.535156 6.34375 -27.921875 C 4.09375 -30.304688 2.96875 -33.648438 2.96875 -37.953125 C 2.96875 -41.492188 4.023438 -44.644531 6.140625 -47.40625 C 8.253906 -50.175781 11.335938 -52.359375 15.390625 -53.953125 C 19.453125 -55.554688 24.3125 -56.359375 29.96875 -56.359375 C 34 -56.359375 37.988281 -55.945312 41.9375 -55.125 C 45.894531 -54.3125 49.203125 -53.15625 51.859375 -51.65625 L 46.03125 -38.46875 C 41.125 -41.195312 35.804688 -42.5625 30.078125 -42.5625 C 27.003906 -42.5625 24.75 -42.203125 23.3125 -41.484375 C 21.882812 -40.765625 21.171875 -39.828125 21.171875 -38.671875 C 21.171875 -37.367188 21.953125 -36.460938 23.515625 -35.953125 C 25.085938 -35.441406 27.679688 -34.914062 31.296875 -34.375 C 35.867188 -33.6875 39.65625 -32.898438 42.65625 -32.015625 C 45.65625 -31.128906 48.265625 -29.507812 50.484375 -27.15625 C 52.703125 -24.800781 53.8125 -21.507812 53.8125 -17.28125 C 53.8125 -13.8125 52.753906 -10.691406 50.640625 -7.921875 C 48.523438 -5.160156 45.40625 -2.992188 41.28125 -1.421875 C 37.15625 0.140625 32.191406 0.921875 26.390625 0.921875 Z M 26.390625 0.921875 "/></g></g></g><g fill="#ffffff" fill-opacity="1"><g transform="translate(144.923418, 96.940246)"><g><path d="M 34.0625 0.921875 C 28.132812 0.921875 22.78125 -0.300781 18 -2.75 C 13.226562 -5.207031 9.492188 -8.617188 6.796875 -12.984375 C 4.109375 -17.347656 2.765625 -22.296875 2.765625 -27.828125 C 2.765625 -33.285156 4.109375 -38.195312 6.796875 -42.5625 C 9.492188 -46.925781 13.210938 -50.316406 17.953125 -52.734375 C 22.691406 -55.148438 28.0625 -56.359375 34.0625 -56.359375 C 40.0625 -56.359375 45.445312 -55.148438 50.21875 -52.734375 C 55 -50.316406 58.71875 -46.941406 61.375 -42.609375 C 64.039062 -38.273438 65.375 -33.347656 65.375 -27.828125 C 65.375 -22.296875 64.039062 -17.347656 61.375 -12.984375 C 58.71875 -8.617188 55 -5.207031 50.21875 -2.75 C 45.445312 -0.300781 40.0625 0.921875 34.0625 0.921875 Z M 34.0625 -14.53125 C 37.46875 -14.53125 40.265625 -15.703125 42.453125 -18.046875 C 44.640625 -20.398438 45.734375 -23.660156 45.734375 -27.828125 C 45.734375 -31.921875 44.640625 -35.125 42.453125 -37.4375 C 40.265625 -39.757812 37.46875 -40.921875 34.0625 -40.921875 C 30.65625 -40.921875 27.859375 -39.757812 25.671875 -37.4375 C 23.492188 -35.125 22.40625 -31.921875 22.40625 -27.828125 C 22.40625 -23.660156 23.492188 -20.398438 25.671875 -18.046875 C 27.859375 -15.703125 30.65625 -14.53125 34.0625 -14.53125 Z M 34.0625 -14.53125 "/></g></g></g><g fill="#ffffff" fill-opacity="1"><g transform="translate(205.27975, 96.940246)"><g><path d="M 6.234375 -75.90625 L 25.671875 -75.90625 L 25.671875 0 L 6.234375 0 Z M 6.234375 -75.90625 "/></g></g></g><g fill="#ffffff" fill-opacity="1"><g transform="translate(229.524577, 96.940246)"><g><path d="M 64.65625 -55.4375 L 41.734375 0 L 21.6875 0 L -1.125 -55.4375 L 18.828125 -55.4375 L 32.125 -21.578125 L 46.140625 -55.4375 Z M 64.65625 -55.4375 "/></g></g></g><g fill="#ffffff" fill-opacity="1"><g transform="translate(285.175188, 96.940246)"><g><path d="M 6.234375 -55.4375 L 25.671875 -55.4375 L 25.671875 0 L 6.234375 0 Z M 15.953125 -61.578125 C 12.398438 -61.578125 9.53125 -62.566406 7.34375 -64.546875 C 5.164062 -66.523438 4.078125 -68.984375 4.078125 -71.921875 C 4.078125 -74.847656 5.164062 -77.300781 7.34375 -79.28125 C 9.53125 -81.257812 12.398438 -82.25 15.953125 -82.25 C 19.492188 -82.25 22.351562 -81.3125 24.53125 -79.4375 C 26.71875 -77.5625 27.8125 -75.15625 27.8125 -72.21875 C 27.8125 -69.15625 26.71875 -66.613281 24.53125 -64.59375 C 22.351562 -62.582031 19.492188 -61.578125 15.953125 -61.578125 Z M 15.953125 -61.578125 "/></g></g></g><g fill="#ffffff" fill-opacity="1"><g transform="translate(309.420016, 96.940246)"><g><path d="M 29.875 -56.359375 C 39.082031 -56.359375 46.101562 -54.257812 50.9375 -50.0625 C 55.78125 -45.875 58.203125 -39.453125 58.203125 -30.796875 L 58.203125 0 L 40.09375 0 L 40.09375 -7.15625 C 37.300781 -1.769531 31.847656 0.921875 23.734375 0.921875 C 19.429688 0.921875 15.710938 0.171875 12.578125 -1.328125 C 9.441406 -2.828125 7.070312 -4.851562 5.46875 -7.40625 C 3.863281 -9.96875 3.0625 -12.882812 3.0625 -16.15625 C 3.0625 -21.414062 5.070312 -25.492188 9.09375 -28.390625 C 13.125 -31.285156 19.332031 -32.734375 27.71875 -32.734375 L 38.765625 -32.734375 C 38.429688 -38.597656 34.507812 -41.53125 27 -41.53125 C 24.34375 -41.53125 21.648438 -41.101562 18.921875 -40.25 C 16.191406 -39.394531 13.875 -38.21875 11.96875 -36.71875 L 5.421875 -49.921875 C 8.492188 -51.960938 12.226562 -53.546875 16.625 -54.671875 C 21.019531 -55.796875 25.4375 -56.359375 29.875 -56.359375 Z M 29.15625 -11.359375 C 31.40625 -11.359375 33.378906 -11.898438 35.078125 -12.984375 C 36.785156 -14.078125 38.015625 -15.679688 38.765625 -17.796875 L 38.765625 -22.609375 L 30.375 -22.609375 C 24.71875 -22.609375 21.890625 -20.734375 21.890625 -16.984375 C 21.890625 -15.273438 22.535156 -13.910156 23.828125 -12.890625 C 25.128906 -11.867188 26.90625 -11.359375 29.15625 -11.359375 Z M 29.15625 -11.359375 "/></g></g></g></svg>